<?xml version="1.0" encoding="UTF-8" standalone="no"?>
<!-- Created with Inkscape (http://www.inkscape.org/) -->

<svg
   width="74.648155mm"
   height="42.076912mm"
   viewBox="0 0 74.648155 42.076912"
   version="1.1"
   id="svg1"
   xml:space="preserve"
   inkscape:version="1.4.2 (ebf0e940d0, 2025-05-08)"
   sodipodi:docname="favicon.svg"
   xmlns:inkscape="http://www.inkscape.org/namespaces/inkscape"
   xmlns:sodipodi="http://sodipodi.sourceforge.net/DTD/sodipodi-0.dtd"
   xmlns="http://www.w3.org/2000/svg"
   xmlns:svg="http://www.w3.org/2000/svg"><sodipodi:namedview
     id="namedview1"
     pagecolor="#ffffff"
     bordercolor="#000000"
     borderopacity="0.25"
     inkscape:showpageshadow="2"
     inkscape:pageopacity="0.0"
     inkscape:pagecheckerboard="0"
     inkscape:deskcolor="#d1d1d1"
     inkscape:document-units="mm"
     inkscape:zoom="1.036062"
     inkscape:cx="260.60216"
     inkscape:cy="200.27759"
     inkscape:window-width="1696"
     inkscape:window-height="1374"
     inkscape:window-x="0"
     inkscape:window-y="0"
     inkscape:window-maximized="0"
     inkscape:current-layer="layer1" /><defs
     id="defs1" /><g
     inkscape:label="Layer 1"
     inkscape:groupmode="layer"
     id="layer1"
     transform="translate(-36.115624,-95.514582)"><path
       style="fill:#000000"
       d="m 51.070749,136.7275 c -0.212312,-0.47518 -1.825494,-4.85255 -3.58485,-9.7275 -1.759355,-4.87495 -3.381527,-9.33979 -3.604824,-9.92188 -0.223298,-0.58208 -1.45897,-3.97536 -2.745937,-7.54062 -1.286968,-3.56526 -2.715146,-7.49432 -3.17373,-8.73125 -1.017083,-2.743353 -1.845784,-5.078354 -1.845784,-5.200798 0,-0.04998 3.786541,-0.09087 8.414537,-0.09087 h 8.414537 l 1.934317,7.606768 c 1.063875,4.18373 2.477173,9.77966 3.140663,12.43542 0.790527,3.16424 1.324803,4.82864 1.550005,4.82864 0.378021,0 0.574079,-0.62169 2.336297,-7.40833 1.776417,-6.84132 4.074186,-15.628983 4.323898,-16.536456 l 0.218419,-0.79375 7.833344,-0.07005 c 7.289592,-0.06519 7.843359,-0.03764 7.977622,0.396875 0.07935,0.256811 1.461028,5.705671 3.070391,12.108601 1.609363,6.40291 3.011535,11.84701 3.115939,12.09798 0.104403,0.25097 0.317996,0.37005 0.474651,0.26458 0.156655,-0.10545 0.953487,-2.81111 1.770737,-6.01257 0.81725,-3.20145 2.213452,-8.67018 3.102672,-12.15271 0.889219,-3.482521 1.676993,-6.429318 1.750607,-6.548429 0.07362,-0.11911 3.528123,-0.216565 7.67668,-0.216565 h 7.54284 l -0.17015,0.595313 c -0.15758,0.551327 -0.6846,2.010996 -3.12853,8.665101 -0.50774,1.38246 -3.26931,8.94291 -6.1368,16.80104 -2.867496,7.85812 -5.373105,14.67629 -5.568021,15.15147 l -0.354392,0.86398 -7.610444,-0.0702 -7.610444,-0.0702 -1.006862,-3.43958 c -0.553774,-1.89177 -1.123897,-3.85631 -1.266939,-4.36563 -0.143042,-0.50932 -1.139411,-4.05856 -2.214153,-7.8872 -1.881059,-6.70103 -2.125975,-7.43144 -2.399992,-7.15742 -0.06865,0.0687 -1.586698,5.23795 -3.373437,11.48732 l -3.248616,11.36251 -7.609115,0.0702 -7.609115,0.0702 z"
       id="path1" /></g></svg>
